<svg width="26" height="26" viewBox="0 0 26 26" fill="none" xmlns="http://www.w3.org/2000/svg">
<path d="M24.6955 22.0386L19.8273 17.1704C19.6076 16.9507 19.3097 16.8286 18.9972 16.8286H18.2013C19.549 15.105 20.3498 12.937 20.3498 10.5786C20.3498 4.96826 15.8039 0.422363 10.1935 0.422363C4.58316 0.422363 0.037262 4.96826 0.037262 10.5786C0.037262 16.189 4.58316 20.7349 10.1935 20.7349C12.5519 20.7349 14.7199 19.9341 16.4435 18.5864V19.3823C16.4435 19.6948 16.5656 19.9927 16.7853 20.2124L21.6535 25.0806C22.1125 25.5396 22.8546 25.5396 23.3087 25.0806L24.6906 23.6987C25.1496 23.2397 25.1496 22.4976 24.6955 22.0386ZM10.1935 16.8286C6.74136 16.8286 3.94351 14.0356 3.94351 10.5786C3.94351 7.12646 6.73648 4.32861 10.1935 4.32861C13.6457 4.32861 16.4435 7.12158 16.4435 10.5786C16.4435 14.0308 13.6505 16.8286 10.1935 16.8286Z" fill="white"/>
</svg>
